<?xml version="1.0" encoding="utf-8"?>
<!-- Generator: Adobe Illustrator 14.0.0, SVG Export Plug-In . SVG Version: 6.00 Build 43363)  -->
<!DOCTYPE svg PUBLIC "-//W3C//DTD SVG 1.1//EN" "http://www.w3.org/Graphics/SVG/1.1/DTD/svg11.dtd">
<svg version="1.1" id="Ebene_1" xmlns="http://www.w3.org/2000/svg" xmlns:xlink="http://www.w3.org/1999/xlink" x="0px" y="0px"
	 width="192px" height="192px" viewBox="0 0 192 192" enable-background="new 0 0 192 192" xml:space="preserve">
<path fill="#343434" d="M22.957,190.043h146.449c11.564,0,20.922-9.368,20.922-20.923V22.666c0-11.554-9.357-20.922-20.922-20.922
	H22.957c-11.503,0-20.922,9.318-20.922,20.922V169.12C2.035,180.675,11.413,190.043,22.957,190.043z"/>
<path fill="#F3961D" d="M119.424,47.971H46.047c1.829-7.345,5.772-13.801,11.187-18.757h50.998
	C113.646,34.169,117.585,40.625,119.424,47.971z"/>
<path fill="#D32F2E" d="M78.794,19.192c9.858,0,18.755,3.851,25.498,10.021H53.295C60.038,23.043,68.935,19.192,78.794,19.192z"/>
<path fill="#FBC013" d="M123.184,57.113c0,3.34-0.572,6.529-1.38,9.614H48.729c-0.812-3.085-1.384-6.273-1.384-9.614
	c0-3.167,0.505-6.201,1.236-9.143h73.376C122.683,50.913,123.184,53.946,123.184,57.113z"/>
<path fill="#24B7CF" d="M94.491,95.035c-9.593,0-18.251-3.678-24.927-9.552h49.86C112.743,91.357,104.083,95.035,94.491,95.035z"/>
<path fill="#CCD642" d="M114.756,85.483H64.901c-5.579-4.904-9.665-11.36-11.611-18.756h73.08
	C124.42,74.123,120.334,80.579,114.756,85.483z"/>
<path fill="#4D8EC7" d="M90.279,114.322c18.68,0,35.751,3.392,48.97,8.979H41.32C54.534,117.714,71.605,114.322,90.279,114.322z"/>
<rect x="26.88" y="160.854" fill="#A45D9D" width="151.679" height="10.022"/>
<path fill="#61539A" d="M174.698,151.917v8.897H23.019v-8.897c0-3.413,0.985-6.712,2.677-9.858h146.326
	C173.717,145.205,174.698,148.504,174.698,151.917z"/>
<path fill="#5565A8" d="M169.346,142.059H23.019c3.974-7.396,12.263-13.883,23.485-18.757h99.365
	C157.086,128.176,165.381,134.663,169.346,142.059z"/>
</svg>
