<svg xmlns="http://www.w3.org/2000/svg" width="168" height="168" viewBox="0 0 168 168"><path fill="#343434" d="M20.498 165.65h127.004c10.03 0 18.145-8.125 18.145-18.146V20.494c0-10.02-8.115-18.144-18.145-18.144H20.498c-9.976 0-18.145 8.08-18.145 18.145v127.01c0 10.02 8.133 18.144 18.145 18.144z"/><path fill="#F3961D" d="M104.156 42.44H40.52c1.588-6.37 5.008-11.97 9.703-16.267H94.45a32.806 32.806 0 0 1 9.706 16.267z"/><path fill="#D32F2E" d="M68.922 17.483c8.55 0 16.265 3.34 22.112 8.69H46.808c5.847-5.35 13.563-8.69 22.114-8.69z"/><path fill="#FBC013" d="M107.417 50.37c0 2.896-.496 5.66-1.197 8.336H42.848c-.704-2.675-1.2-5.44-1.2-8.337 0-2.748.438-5.378 1.072-7.93h63.634c.628 2.552 1.063 5.183 1.063 7.93z"/><path fill="#24B7CF" d="M82.534 83.256c-8.32 0-15.828-3.19-21.617-8.284h43.24c-5.795 5.094-13.304 8.284-21.623 8.284z"/><path fill="#CCD642" d="M100.108 74.972H56.873c-4.838-4.253-8.382-9.852-10.07-16.266h63.378a32.72 32.72 0 0 1-10.072 16.266z"/><path fill="#4D8EC7" d="M78.882 99.982c16.2 0 31.004 2.94 42.468 7.787H36.423c11.46-4.846 26.264-7.788 42.46-7.788z"/><path fill="#A45D9D" d="M23.9 140.337h131.54v8.69H23.9z"/><path fill="#61539A" d="M152.092 132.586v7.716H20.552v-7.716c0-2.96.853-5.82 2.32-8.55H149.77c1.47 2.73 2.322 5.59 2.322 8.55z"/><path fill="#5565A8" d="M147.45 124.036H20.55c3.447-6.414 10.637-12.04 20.368-16.267h86.173c9.728 4.226 16.922 9.852 20.36 16.266z"/></svg>