<?xml version="1.0" encoding="utf-8"?>
<!-- Generator: Adobe Illustrator 14.0.0, SVG Export Plug-In . SVG Version: 6.00 Build 43363)  -->
<!DOCTYPE svg PUBLIC "-//W3C//DTD SVG 1.1//EN" "http://www.w3.org/Graphics/SVG/1.1/DTD/svg11.dtd">
<svg version="1.1" id="Ebene_1" xmlns="http://www.w3.org/2000/svg" xmlns:xlink="http://www.w3.org/1999/xlink" x="0px" y="0px"
	 width="168px" height="168px" viewBox="0 0 168 168" enable-background="new 0 0 168 168" xml:space="preserve">
<g>
	<path fill="#343434" d="M20.498,165.649h127.004c10.029,0,18.145-8.124,18.145-18.145V20.495c0-10.02-8.115-18.145-18.145-18.145
		H20.498c-9.976,0-18.145,8.081-18.145,18.145v127.01C2.354,157.525,10.486,165.649,20.498,165.649z"/>
	<path fill="#F3961D" d="M104.156,42.44H40.521c1.587-6.37,5.007-11.969,9.702-16.267H94.45
		C99.146,30.472,102.562,36.07,104.156,42.44z"/>
	<path fill="#D32F2E" d="M68.922,17.483c8.549,0,16.265,3.34,22.112,8.691H46.808C52.655,20.823,60.371,17.483,68.922,17.483z"/>
	<path fill="#FBC013" d="M107.417,50.369c0,2.897-0.496,5.662-1.197,8.337H42.848c-0.704-2.675-1.2-5.44-1.2-8.337
		c0-2.747,0.438-5.377,1.072-7.929h63.634C106.982,44.992,107.417,47.623,107.417,50.369z"/>
	<path fill="#24B7CF" d="M82.534,83.256c-8.319,0-15.828-3.189-21.617-8.284h43.239C98.362,80.066,90.853,83.256,82.534,83.256z"/>
	<path fill="#CCD642" d="M100.108,74.972H56.873c-4.838-4.253-8.382-9.852-10.069-16.266h63.377
		C108.489,65.121,104.945,70.719,100.108,74.972z"/>
	<path fill="#4D8EC7" d="M78.882,99.982c16.199,0,31.004,2.941,42.468,7.787H36.423C47.883,102.924,62.687,99.982,78.882,99.982z"/>
	<rect x="23.899" y="140.337" fill="#A45D9D" width="131.54" height="8.691"/>
	<path fill="#61539A" d="M152.092,132.586v7.716H20.551v-7.716c0-2.96,0.854-5.821,2.321-8.55h126.898
		C151.24,126.765,152.092,129.626,152.092,132.586z"/>
	<path fill="#5565A8" d="M147.45,124.036H20.551c3.446-6.414,10.636-12.04,20.367-16.267h86.173
		C136.818,111.996,144.012,117.622,147.45,124.036z"/>
</g>
</svg>
