<svg xmlns="http://www.w3.org/2000/svg" width="48" height="48" viewBox="0 0 48 48"><path fill="#343434" d="M6.623 46.344h34.754a4.965 4.965 0 0 0 4.966-4.966V6.62c0-2.74-2.22-4.964-4.966-4.964H6.623A4.966 4.966 0 0 0 1.657 6.62V41.38a4.968 4.968 0 0 0 4.966 4.966z"/><path fill="#F3961D" d="M26.92 12.683H9.508a8.965 8.965 0 0 1 2.655-4.45h12.103a8.972 8.972 0 0 1 2.656 4.45z"/><path fill="#D32F2E" d="M15.556 5.854c2.34 0 4.45.914 6.05 2.378H9.505c1.6-1.464 3.712-2.378 6.052-2.378z"/><path fill="#FBC013" d="M29.364 14.853c0 .793-.136 1.55-.328 2.28H11.694c-.192-.73-.328-1.487-.328-2.28 0-.752.12-1.472.293-2.17h17.413c.173.698.29 1.418.29 2.17z"/><path fill="#24B7CF" d="M24.13 23.852c-2.276 0-4.332-.872-5.916-2.267h11.832c-1.586 1.394-3.64 2.267-5.917 2.267z"/><path fill="#CCD642" d="M28.423 21.585h-11.83a8.942 8.942 0 0 1-2.757-4.45H31.18a8.955 8.955 0 0 1-2.757 4.45z"/><path fill="#4D8EC7" d="M19.094 28.373c4.433 0 8.484.806 11.622 2.132H7.476c3.135-1.326 7.186-2.132 11.618-2.132z"/><path fill="#A45D9D" d="M7.476 39.417H43.47v2.378H7.477z"/><path fill="#61539A" d="M41.747 37.296v2.11H5.75v-2.11c0-.81.234-1.594.636-2.34h34.726c.402.746.635 1.53.635 2.34z"/><path fill="#5565A8" d="M39.256 34.955H4.53c.94-1.754 2.91-3.294 5.572-4.45h23.58c2.664 1.156 4.63 2.696 5.574 4.45z"/></svg>