<svg xmlns="http://www.w3.org/2000/svg" width="72" height="72" viewBox="0 0 72 72"><path fill="#343434" d="M9.307 70.322h53.387a7.625 7.625 0 0 0 7.627-7.627V9.305c0-4.21-3.41-7.626-7.626-7.626H9.307c-4.193 0-7.627 3.395-7.627 7.625v53.39a7.63 7.63 0 0 0 7.627 7.627z"/><path fill="#F3961D" d="M40.486 18.616h-26.75a13.767 13.767 0 0 1 4.08-6.838h18.59a13.78 13.78 0 0 1 4.08 6.838z"/><path fill="#D32F2E" d="M23.03 8.125c3.592 0 6.836 1.403 9.294 3.653H13.732c2.46-2.25 5.703-3.653 9.297-3.653z"/><path fill="#FBC013" d="M44.24 21.95c0 1.216-.21 2.38-.504 3.504H17.098c-.296-1.125-.504-2.288-.504-3.505 0-1.156.185-2.262.45-3.334h26.75c.264 1.072.445 2.177.445 3.333z"/><path fill="#24B7CF" d="M36.198 35.772c-3.496 0-6.653-1.34-9.087-3.482h18.177c-2.435 2.143-5.593 3.482-9.09 3.482z"/><path fill="#CCD642" d="M42.794 32.29H24.62a13.745 13.745 0 0 1-4.233-6.836h26.64a13.767 13.767 0 0 1-4.233 6.837z"/><path fill="#4D8EC7" d="M28.464 42.718c6.81 0 13.033 1.236 17.852 3.273h-35.7c4.818-2.035 11.04-3.272 17.848-3.272z"/><path fill="#A45D9D" d="M10.616 59.682H65.91v3.653H10.615z"/><path fill="#61539A" d="M63.26 56.423v3.244H7.968v-3.244c0-1.244.36-2.447.976-3.594h53.343c.616 1.146.975 2.35.975 3.593z"/><path fill="#5565A8" d="M59.434 52.83H6.09c1.448-2.696 4.472-5.062 8.563-6.838h36.223c4.088 1.777 7.11 4.142 8.558 6.837z"/></svg>