<svg xmlns="http://www.w3.org/2000/svg" width="192" height="192" viewBox="0 0 192 192"><path fill="#343434" d="M22.957 190.043h146.45c11.563 0 20.92-9.368 20.92-20.923V22.666c0-11.554-9.356-20.922-20.92-20.922H22.956c-11.503 0-20.922 9.318-20.922 20.922V169.12c0 11.555 9.378 20.923 20.922 20.923z"/><path fill="#F3961D" d="M119.424 47.97H46.047c1.83-7.344 5.772-13.8 11.187-18.756h50.998a37.828 37.828 0 0 1 11.192 18.757z"/><path fill="#D32F2E" d="M78.794 19.192c9.858 0 18.755 3.85 25.498 10.02H53.295c6.743-6.17 15.64-10.02 25.5-10.02z"/><path fill="#FBC013" d="M123.184 57.113c0 3.34-.572 6.53-1.38 9.614H48.73c-.813-3.085-1.385-6.273-1.385-9.614 0-3.167.505-6.2 1.236-9.143h73.377c.726 2.943 1.227 5.976 1.227 9.143z"/><path fill="#24B7CF" d="M94.49 95.035c-9.592 0-18.25-3.678-24.926-9.552h49.86c-6.68 5.874-15.34 9.552-24.933 9.552z"/><path fill="#CCD642" d="M114.756 85.483H64.9c-5.578-4.904-9.664-11.36-11.61-18.756h73.08c-1.95 7.396-6.036 13.852-11.614 18.756z"/><path fill="#4D8EC7" d="M90.28 114.322c18.68 0 35.75 3.392 48.97 8.98H41.32c13.214-5.588 30.285-8.98 48.96-8.98z"/><path fill="#A45D9D" d="M26.88 160.854h151.68v10.022H26.88z"/><path fill="#61539A" d="M174.698 151.917v8.897H23.018v-8.897c0-3.413.986-6.712 2.678-9.858h146.326c1.695 3.145 2.676 6.444 2.676 9.857z"/><path fill="#5565A8" d="M169.346 142.06H23.02c3.973-7.397 12.262-13.884 23.484-18.758h99.365c11.216 4.874 19.51 11.36 23.476 18.757z"/></svg>