<?xml version="1.0" encoding="utf-8"?>
<!-- Generator: Adobe Illustrator 14.0.0, SVG Export Plug-In . SVG Version: 6.00 Build 43363)  -->
<!DOCTYPE svg PUBLIC "-//W3C//DTD SVG 1.1//EN" "http://www.w3.org/Graphics/SVG/1.1/DTD/svg11.dtd">
<svg version="1.1" id="Ebene_1" xmlns="http://www.w3.org/2000/svg" xmlns:xlink="http://www.w3.org/1999/xlink" x="0px" y="0px"
	 width="48px" height="48px" viewBox="0 0 48 48" enable-background="new 0 0 48 48" xml:space="preserve">
<g>
	<path fill="#343434" d="M6.623,46.344h34.754c2.745,0,4.966-2.224,4.966-4.966V6.621c0-2.741-2.221-4.965-4.966-4.965H6.623
		c-2.73,0-4.966,2.211-4.966,4.965v34.757C1.657,44.12,3.883,46.344,6.623,46.344z"/>
	<path fill="#F3961D" d="M26.921,12.683H9.507c0.435-1.743,1.37-3.275,2.655-4.451h12.103C25.55,9.407,26.484,10.939,26.921,12.683z
		"/>
	<path fill="#D32F2E" d="M15.556,5.854c2.339,0,4.451,0.914,6.051,2.378H9.504C11.104,6.768,13.216,5.854,15.556,5.854z"/>
	<path fill="#FBC013" d="M29.364,14.853c0,0.793-0.136,1.55-0.328,2.281H11.694c-0.192-0.731-0.328-1.488-0.328-2.281
		c0-0.752,0.12-1.472,0.293-2.17h17.414C29.246,13.381,29.364,14.101,29.364,14.853z"/>
	<path fill="#24B7CF" d="M24.129,23.852c-2.275,0-4.331-0.872-5.915-2.267h11.832C28.46,22.979,26.405,23.852,24.129,23.852z"/>
	<path fill="#CCD642" d="M28.423,21.585H16.592c-1.324-1.163-2.294-2.696-2.756-4.451h17.343
		C30.716,18.889,29.746,20.422,28.423,21.585z"/>
	<path fill="#4D8EC7" d="M19.094,28.373c4.433,0,8.484,0.806,11.622,2.132H7.476C10.611,29.179,14.662,28.373,19.094,28.373z"/>
	<rect x="7.476" y="39.417" fill="#A45D9D" width="35.995" height="2.378"/>
	<path fill="#61539A" d="M41.747,37.296v2.111H5.75v-2.111c0-0.81,0.234-1.594,0.636-2.341h34.726
		C41.514,35.702,41.747,36.486,41.747,37.296z"/>
	<path fill="#5565A8" d="M39.256,34.955H4.529c0.942-1.754,2.91-3.294,5.573-4.45h23.581C36.346,31.661,38.313,33.201,39.256,34.955
		z"/>
</g>
</svg>
