<?xml version="1.0" encoding="utf-8"?>
<!-- Generator: Adobe Illustrator 14.0.0, SVG Export Plug-In . SVG Version: 6.00 Build 43363)  -->
<!DOCTYPE svg PUBLIC "-//W3C//DTD SVG 1.1//EN" "http://www.w3.org/Graphics/SVG/1.1/DTD/svg11.dtd">
<svg version="1.1" id="Ebene_1" xmlns="http://www.w3.org/2000/svg" xmlns:xlink="http://www.w3.org/1999/xlink" x="0px" y="0px"
	 width="144px" height="144px" viewBox="0 0 144 144" enable-background="new 0 0 144 144" xml:space="preserve">
<g>
	<path fill="#343434" d="M18.609,140.648h106.782c8.433,0,15.256-6.83,15.256-15.256V18.606c0-8.424-6.823-15.255-15.256-15.255
		H18.609c-8.387,0-15.255,6.794-15.255,15.255v106.786C3.354,133.818,10.191,140.648,18.609,140.648z"/>
	<path fill="#F3961D" d="M87.511,37.058H34.008c1.334-5.356,4.209-10.063,8.157-13.676H79.35
		C83.298,26.995,86.17,31.702,87.511,37.058z"/>
	<path fill="#D32F2E" d="M57.989,16.074c7.188,0,13.675,2.808,18.591,7.307H39.396C44.312,18.882,50.799,16.074,57.989,16.074z"/>
	<path fill="#FBC013" d="M91.689,43.724c0,2.436-0.417,4.76-1.007,7.01H37.4c-0.592-2.25-1.009-4.574-1.009-7.01
		c0-2.31,0.369-4.521,0.901-6.667h53.502C91.324,39.203,91.689,41.415,91.689,43.724z"/>
	<path fill="#24B7CF" d="M70.768,71.375c-6.995,0-13.308-2.682-18.175-6.965h36.354C84.076,68.693,77.761,71.375,70.768,71.375z"/>
	<path fill="#CCD642" d="M84.213,64.41H47.862c-4.068-3.576-7.047-8.283-8.466-13.676h53.286
		C91.259,56.126,88.28,60.834,84.213,64.41z"/>
	<path fill="#4D8EC7" d="M67.366,85.438c13.62,0,26.067,2.473,35.706,6.547H31.667C41.302,87.911,53.749,85.438,67.366,85.438z"/>
	<rect x="22.616" y="119.367" fill="#A45D9D" width="110.595" height="7.307"/>
	<path fill="#61539A" d="M129.25,112.85v6.488H18.653v-6.488c0-2.488,0.718-4.895,1.952-7.188h106.693
		C128.534,107.955,129.25,110.361,129.25,112.85z"/>
	<path fill="#5565A8" d="M124.117,105.662H17.422c2.897-5.393,8.942-10.124,17.125-13.677h72.451
		C115.178,95.539,121.225,100.27,124.117,105.662z"/>
</g>
</svg>
