<?xml version="1.0" encoding="utf-8"?>
<!-- Generator: Adobe Illustrator 14.0.0, SVG Export Plug-In . SVG Version: 6.00 Build 43363)  -->
<!DOCTYPE svg PUBLIC "-//W3C//DTD SVG 1.1//EN" "http://www.w3.org/Graphics/SVG/1.1/DTD/svg11.dtd">
<svg version="1.1" id="Ebene_1" xmlns="http://www.w3.org/2000/svg" xmlns:xlink="http://www.w3.org/1999/xlink" x="0px" y="0px"
	 width="96px" height="96px" viewBox="0 0 96 96" enable-background="new 0 0 96 96" xml:space="preserve">
<g>
	<path fill="#343434" d="M13.399,92.489h69.201c5.465,0,9.887-4.427,9.887-9.887V13.397c0-5.459-4.422-9.886-9.887-9.886H13.399
		c-5.436,0-9.887,4.402-9.887,9.886v69.205C3.513,88.062,7.944,92.489,13.399,92.489z"/>
	<path fill="#F3961D" d="M53.815,25.467H19.142c0.865-3.471,2.729-6.521,5.287-8.863h24.098
		C51.085,18.945,52.947,21.996,53.815,25.467z"/>
	<path fill="#D32F2E" d="M31.187,11.868c4.658,0,8.862,1.819,12.049,4.735H19.137C22.323,13.688,26.527,11.868,31.187,11.868z"/>
	<path fill="#FBC013" d="M58.681,29.787c0,1.578-0.271,3.085-0.652,4.543h-34.53c-0.383-1.458-0.653-2.965-0.653-4.543
		c0-1.497,0.239-2.931,0.584-4.32h34.673C58.444,26.856,58.681,28.29,58.681,29.787z"/>
	<path fill="#24B7CF" d="M48.257,47.706c-4.532,0-8.624-1.737-11.778-4.514h23.56C56.882,45.969,52.789,47.706,48.257,47.706z"/>
	<path fill="#CCD642" d="M56.806,43.192H33.249c-2.637-2.317-4.567-5.368-5.487-8.862h34.533
		C61.373,37.824,59.442,40.875,56.806,43.192z"/>
	<path fill="#4D8EC7" d="M38.231,56.709c8.826,0,16.894,1.603,23.14,4.243H15.097C21.341,58.312,29.407,56.709,38.231,56.709z"/>
	<rect x="15.097" y="78.697" fill="#A45D9D" width="71.673" height="4.735"/>
	<path fill="#61539A" d="M83.336,74.474v4.205H11.662v-4.205c0-1.612,0.466-3.172,1.266-4.658h69.144
		C82.872,71.302,83.336,72.861,83.336,74.474z"/>
	<path fill="#5565A8" d="M78.375,69.815H9.23c1.877-3.494,5.795-6.561,11.098-8.863h46.953
		C72.582,63.255,76.501,66.321,78.375,69.815z"/>
</g>
</svg>
