<svg xmlns="http://www.w3.org/2000/svg" width="144" height="144" viewBox="0 0 144 144"><path fill="#343434" d="M18.61 140.648h106.78c8.434 0 15.257-6.83 15.257-15.256V18.606c0-8.424-6.823-15.255-15.256-15.255H18.61c-8.388 0-15.256 6.795-15.256 15.256v106.786c0 8.426 6.837 15.256 15.255 15.256z"/><path fill="#F3961D" d="M87.51 37.058H34.01a27.524 27.524 0 0 1 8.157-13.676H79.35a27.58 27.58 0 0 1 8.16 13.676z"/><path fill="#D32F2E" d="M57.99 16.074c7.187 0 13.674 2.808 18.59 7.307H39.396c4.916-4.498 11.403-7.306 18.593-7.306z"/><path fill="#FBC013" d="M91.69 43.724c0 2.436-.418 4.76-1.008 7.01H37.4c-.592-2.25-1.01-4.574-1.01-7.01 0-2.31.37-4.52.902-6.667h53.502c.53 2.146.895 4.358.895 6.667z"/><path fill="#24B7CF" d="M70.768 71.375c-6.995 0-13.308-2.682-18.175-6.965h36.354c-4.87 4.283-11.186 6.965-18.18 6.965z"/><path fill="#CCD642" d="M84.213 64.41h-36.35a27.476 27.476 0 0 1-8.467-13.676h53.286a27.52 27.52 0 0 1-8.47 13.676z"/><path fill="#4D8EC7" d="M67.366 85.438c13.62 0 26.067 2.473 35.706 6.547H31.667c9.635-4.074 22.082-6.547 35.7-6.547z"/><path fill="#A45D9D" d="M22.616 119.367H133.21v7.307H22.617z"/><path fill="#61539A" d="M129.25 112.85v6.488H18.653v-6.488c0-2.488.718-4.895 1.952-7.188h106.693c1.236 2.293 1.952 4.7 1.952 7.188z"/><path fill="#5565A8" d="M124.117 105.662H17.422c2.897-5.393 8.942-10.124 17.125-13.677h72.45c8.18 3.554 14.228 8.285 17.12 13.677z"/></svg>