<?xml version="1.0" encoding="utf-8"?>
<!-- Generator: Adobe Illustrator 14.0.0, SVG Export Plug-In . SVG Version: 6.00 Build 43363)  -->
<!DOCTYPE svg PUBLIC "-//W3C//DTD SVG 1.1//EN" "http://www.w3.org/Graphics/SVG/1.1/DTD/svg11.dtd">
<svg version="1.1" id="Ebene_1" xmlns="http://www.w3.org/2000/svg" xmlns:xlink="http://www.w3.org/1999/xlink" x="0px" y="0px"
	 width="72px" height="72px" viewBox="0 0 72 72" enable-background="new 0 0 72 72" xml:space="preserve">
<g>
	<path fill="#343434" d="M9.307,70.322h53.387c4.216,0,7.627-3.416,7.627-7.627V9.305c0-4.211-3.411-7.626-7.627-7.626H9.307
		c-4.193,0-7.627,3.396-7.627,7.626v53.39C1.68,66.906,5.099,70.322,9.307,70.322z"/>
	<path fill="#F3961D" d="M40.486,18.616H13.737c0.667-2.677,2.104-5.031,4.078-6.838h18.591
		C38.381,13.585,39.816,15.938,40.486,18.616z"/>
	<path fill="#D32F2E" d="M23.029,8.125c3.593,0,6.837,1.403,9.295,3.653H13.732C16.191,9.528,19.435,8.125,23.029,8.125z"/>
	<path fill="#FBC013" d="M44.239,21.949c0,1.217-0.208,2.38-0.503,3.505H17.098c-0.296-1.125-0.504-2.288-0.504-3.505
		c0-1.155,0.185-2.261,0.45-3.333h26.749C44.058,19.688,44.239,20.793,44.239,21.949z"/>
	<path fill="#24B7CF" d="M36.198,35.772c-3.496,0-6.653-1.34-9.087-3.482h18.176C42.852,34.433,39.694,35.772,36.198,35.772z"/>
	<path fill="#CCD642" d="M42.794,32.291H24.62c-2.034-1.788-3.523-4.142-4.233-6.837h26.641
		C46.316,28.149,44.827,30.503,42.794,32.291z"/>
	<path fill="#4D8EC7" d="M28.464,42.718c6.809,0,13.033,1.236,17.852,3.273H10.616C15.434,43.955,21.656,42.718,28.464,42.718z"/>
	<rect x="10.616" y="59.682" fill="#A45D9D" width="55.293" height="3.653"/>
	<path fill="#61539A" d="M63.261,56.423v3.244H7.967v-3.244c0-1.244,0.359-2.447,0.976-3.594h53.343
		C62.902,53.976,63.261,55.179,63.261,56.423z"/>
	<path fill="#5565A8" d="M59.434,52.829H6.091c1.447-2.695,4.471-5.061,8.562-6.837h36.223
		C54.964,47.769,57.987,50.134,59.434,52.829z"/>
</g>
</svg>
