<svg xmlns="http://www.w3.org/2000/svg" width="96" height="96" viewBox="0 0 96 96"><path fill="#343434" d="M13.4 92.49h69.2a9.884 9.884 0 0 0 9.887-9.888V13.397A9.884 9.884 0 0 0 82.6 3.51H13.4c-5.437 0-9.888 4.403-9.888 9.887v69.205c0 5.46 4.432 9.887 9.887 9.887z"/><path fill="#F3961D" d="M53.815 25.467H19.142c.865-3.47 2.73-6.52 5.287-8.863h24.097a17.867 17.867 0 0 1 5.288 8.863z"/><path fill="#D32F2E" d="M31.187 11.868c4.658 0 8.862 1.82 12.05 4.735h-24.1c3.186-2.915 7.39-4.735 12.05-4.735z"/><path fill="#FBC013" d="M58.68 29.787c0 1.578-.27 3.085-.65 4.543H23.5c-.384-1.458-.654-2.965-.654-4.543 0-1.497.24-2.93.584-4.32h34.673c.34 1.39.578 2.823.578 4.32z"/><path fill="#24B7CF" d="M48.257 47.706c-4.532 0-8.624-1.737-11.778-4.514h23.56c-3.158 2.777-7.25 4.514-11.783 4.514z"/><path fill="#CCD642" d="M56.806 43.192H33.25a17.804 17.804 0 0 1-5.488-8.862h34.533a17.83 17.83 0 0 1-5.49 8.862z"/><path fill="#4D8EC7" d="M38.23 56.71c8.827 0 16.895 1.602 23.14 4.242H15.098c6.244-2.64 14.31-4.243 23.134-4.243z"/><path fill="#A45D9D" d="M15.097 78.697H86.77v4.735H15.097z"/><path fill="#61539A" d="M83.336 74.474v4.205H11.662v-4.206c0-1.612.466-3.172 1.266-4.658h69.144c.8 1.486 1.264 3.045 1.264 4.658z"/><path fill="#5565A8" d="M78.375 69.815H9.23c1.877-3.494 5.795-6.56 11.098-8.863H67.28c5.302 2.303 9.22 5.37 11.095 8.863z"/></svg>